<?xml version="1.0" standalone="no"?>
<!DOCTYPE svg PUBLIC "-//W3C//DTD SVG 20010904//EN"
 "http://www.w3.org/TR/2001/REC-SVG-20010904/DTD/svg10.dtd">
<svg version="1.0" xmlns="http://www.w3.org/2000/svg"
 width="2000.000000pt" height="2000.000000pt" viewBox="0 0 2000.000000 2000.000000"
 preserveAspectRatio="xMidYMid meet">
<metadata>
Created by potrace 1.14, written by Peter Selinger 2001-2017
</metadata>
<g transform="translate(0.000000,2000.000000) scale(0.100000,-0.100000)"
fill="#000000" stroke="none">
<path d="M9608 19645 c-2 -2 -31 -7 -63 -10 -33 -3 -71 -7 -85 -9 -14 -2 -43
-7 -65 -10 -22 -3 -51 -8 -65 -11 -57 -12 -76 -15 -103 -20 -15 -3 -53 -12
-85 -21 -68 -18 -89 -23 -121 -30 -14 -3 -28 -7 -33 -10 -4 -3 -16 -7 -25 -9
-10 -2 -52 -14 -93 -25 -41 -12 -82 -23 -90 -25 -8 -2 -15 -4 -15 -5 0 -2 -12
-5 -50 -13 -11 -3 -46 -13 -79 -22 -32 -9 -64 -18 -70 -19 -6 -2 -29 -8 -51
-14 -84 -25 -262 -74 -300 -83 -22 -5 -61 -16 -86 -25 -25 -8 -54 -16 -65 -19
-10 -2 -53 -14 -94 -25 -41 -12 -82 -23 -90 -25 -8 -2 -15 -4 -15 -5 0 -1 -7
-3 -15 -5 -8 -1 -42 -10 -75 -19 -33 -10 -67 -19 -75 -21 -8 -2 -15 -4 -15 -5
0 -1 -7 -3 -15 -5 -35 -8 -173 -46 -370 -101 -30 -9 -62 -17 -70 -19 -8 -3
-49 -14 -90 -25 -41 -11 -82 -22 -90 -24 -8 -3 -64 -19 -125 -36 -60 -17 -135
-38 -165 -46 -30 -8 -62 -16 -70 -19 -90 -25 -308 -87 -320 -89 -8 -2 -35 -9
-60 -16 -25 -7 -47 -12 -50 -12 -3 0 -12 -4 -21 -9 -9 -4 -27 -10 -40 -13 -33
-7 -55 -13 -119 -31 -30 -9 -64 -18 -74 -20 -10 -2 -33 -9 -51 -15 -18 -6 -41
-12 -51 -14 -10 -2 -77 -21 -149 -41 -71 -20 -141 -39 -154 -41 -14 -3 -28 -7
-33 -10 -4 -3 -16 -7 -25 -9 -10 -2 -52 -13 -93 -25 -41 -12 -93 -26 -115 -31
-22 -6 -87 -24 -145 -41 -58 -16 -112 -31 -120 -33 -8 -2 -42 -11 -75 -21 -33
-10 -64 -19 -70 -20 -5 -1 -93 -25 -195 -54 -102 -28 -194 -54 -205 -56 -21
-4 -373 -103 -460 -129 -27 -8 -59 -17 -70 -20 -11 -2 -54 -14 -95 -25 -41
-11 -82 -23 -90 -25 -92 -24 -240 -69 -300 -90 -376 -135 -715 -346 -996 -621
-88 -86 -133 -135 -252 -277 -12 -15 -22 -31 -22 -36 0 -5 -3 -11 -8 -13 -15
-7 -112 -153 -179 -273 -90 -158 -195 -419 -228 -564 -2 -9 -13 -52 -24 -96
-10 -44 -22 -98 -25 -120 -4 -22 -9 -53 -11 -70 -21 -126 -25 -284 -29 -1160
-2 -401 -4 -731 -5 -732 -1 -2 -298 -3 -661 -3 l-660 0 0 -430 0 -430 662 -2
663 -3 1 -1673 c1 -921 0 -1681 -3 -1690 -4 -16 -55 -17 -664 -17 l-659 0 0
-430 0 -430 663 0 662 0 3 -1175 c3 -1196 4 -1269 26 -1420 14 -91 51 -275 56
-275 1 0 3 -11 6 -25 7 -37 82 -255 111 -319 117 -266 234 -452 419 -671 149
-176 281 -293 569 -503 99 -72 241 -176 315 -231 74 -54 162 -119 195 -143 33
-23 65 -47 70 -51 6 -4 62 -46 125 -92 63 -46 250 -183 415 -303 165 -121 337
-248 383 -281 46 -34 157 -115 247 -181 89 -66 234 -172 320 -235 87 -63 220
-161 296 -218 77 -56 143 -102 148 -102 5 0 11 -4 13 -9 2 -5 64 -53 138 -107
74 -54 137 -100 140 -103 3 -3 13 -10 22 -16 9 -5 117 -84 240 -174 123 -91
365 -268 538 -395 173 -126 320 -234 325 -238 6 -5 35 -26 65 -48 69 -50 56
-40 333 -243 429 -314 492 -361 499 -371 5 -7 8 -7 8 -1 0 6 3 6 8 -1 4 -6 34
-30 67 -54 74 -54 181 -132 280 -205 200 -148 416 -275 612 -359 85 -36 329
-121 373 -130 41 -8 63 -13 108 -26 24 -6 55 -13 70 -15 15 -2 38 -6 52 -9 40
-9 134 -23 230 -33 135 -16 662 -5 692 13 3 2 28 7 55 10 26 3 56 7 65 10 10
3 30 7 45 10 125 21 399 104 505 153 26 11 50 21 53 21 12 0 253 120 288 145
21 14 40 25 43 25 10 0 119 73 122 81 2 5 8 9 13 9 7 0 159 107 209 147 8 7
80 60 160 118 80 58 214 156 298 218 84 61 172 126 196 142 24 17 56 40 72 53
31 24 553 407 615 451 97 69 406 297 417 308 7 7 17 13 22 13 5 0 15 6 23 14
7 8 65 51 128 97 63 46 119 88 126 93 7 6 53 40 103 76 50 36 146 106 214 155
314 231 710 521 729 535 12 8 161 117 332 242 170 125 319 234 330 242 60 44
933 684 1065 780 85 63 228 168 318 234 329 241 437 345 685 662 65 82 289
484 285 509 -1 3 6 23 15 43 10 21 17 44 17 51 0 8 3 17 8 21 4 4 7 11 8 14 0
4 3 14 7 22 12 31 58 188 63 216 3 16 7 37 10 46 5 19 12 49 19 93 3 17 8 41
10 55 3 14 8 45 10 70 3 25 8 65 11 90 3 25 7 1058 8 2296 1 1238 5 2255 8
2260 4 5 259 9 648 9 421 0 644 3 648 10 11 17 8 844 -3 848 -5 2 -299 3 -652
3 l-643 -1 -1 295 c-1 162 -2 1029 -4 1925 -1 1447 -5 1738 -20 1795 -2 8 -7
35 -10 60 -6 53 -14 99 -21 122 -3 9 -6 25 -8 35 -2 10 -9 38 -16 63 -7 25
-14 56 -17 69 -2 14 -6 28 -9 33 -3 4 -7 16 -9 25 -15 71 -111 306 -171 418
-42 79 -105 187 -113 195 -3 3 -12 17 -20 33 -8 15 -18 27 -23 27 -4 0 -8 5
-8 11 0 13 -29 52 -135 184 -66 82 -241 262 -305 314 -25 20 -54 44 -65 54
-106 97 -329 239 -530 337 -136 67 -328 144 -384 155 -9 2 -16 4 -16 5 0 1 -7
3 -15 5 -8 2 -62 18 -120 34 -58 17 -114 33 -125 35 -11 3 -44 12 -74 21 -30
9 -62 18 -70 20 -9 2 -36 9 -61 16 -25 7 -47 13 -50 14 -3 1 -25 7 -50 14 -25
7 -52 15 -60 17 -8 2 -40 10 -70 19 -30 9 -62 18 -70 20 -15 4 -82 22 -110 29
-8 3 -27 9 -42 15 -16 6 -28 8 -28 6 0 -2 -12 0 -27 6 -36 13 -144 43 -202 55
-14 3 -28 7 -33 10 -6 4 -75 24 -138 39 -12 3 -90 25 -250 70 -83 24 -168 47
-180 50 -8 2 -72 19 -141 39 -69 20 -135 38 -145 41 -30 6 -227 62 -244 69 -8
3 -26 8 -40 11 -14 2 -50 12 -80 20 -30 9 -62 18 -70 20 -15 4 -113 32 -140
40 -8 2 -40 11 -70 19 -30 8 -98 26 -150 41 -52 15 -111 31 -130 36 -19 6 -39
11 -45 13 -5 1 -35 9 -65 18 -107 31 -251 70 -268 73 -9 2 -17 4 -17 5 0 1 -7
3 -15 5 -8 2 -73 20 -145 40 -71 20 -141 39 -154 41 -13 3 -31 9 -40 13 -9 5
-29 11 -46 14 -16 3 -55 13 -85 22 -30 9 -62 18 -70 20 -16 5 -86 23 -110 30
-8 2 -15 4 -15 5 0 1 -7 3 -16 5 -9 1 -43 11 -75 20 -33 9 -66 19 -74 20 -8 2
-49 14 -90 25 -41 12 -86 24 -99 26 -14 3 -28 7 -33 10 -4 3 -17 7 -28 10 -45
10 -56 13 -82 23 -16 6 -28 8 -28 6 0 -2 -12 0 -27 6 -16 6 -68 22 -118 35
-49 14 -94 26 -100 28 -66 19 -103 29 -115 31 -16 3 -199 55 -285 80 -27 9
-59 17 -70 19 -11 2 -61 16 -112 31 -51 14 -104 28 -119 31 -15 3 -31 7 -34 9
-4 2 -20 7 -36 9 -16 3 -40 8 -54 11 -59 12 -139 25 -185 31 -27 3 -61 8 -75
11 -32 6 -546 14 -552 8z"/>
</g>
</svg>
