<?xml version="1.0" standalone="no"?>
<!DOCTYPE svg PUBLIC "-//W3C//DTD SVG 20010904//EN"
 "http://www.w3.org/TR/2001/REC-SVG-20010904/DTD/svg10.dtd">
<svg version="1.0" xmlns="http://www.w3.org/2000/svg"
 width="700.000000pt" height="700.000000pt" viewBox="0 0 700.000000 700.000000"
 preserveAspectRatio="xMidYMid meet">
<metadata>
Created by potrace 1.14, written by Peter Selinger 2001-2017
</metadata>
<g transform="translate(0.000000,700.000000) scale(0.100000,-0.100000)"
fill="#000000" stroke="none">
<path d="M3400 5909 c-41 -4 -133 -23 -205 -43 -127 -35 -265 -73 -850 -236
-159 -44 -326 -90 -370 -101 -252 -64 -439 -231 -512 -457 -24 -73 -25 -90
-27 -319 -1 -154 -5 -243 -11 -244 -5 0 -80 0 -167 0 l-156 0 1 -108 0 -109
159 1 c87 0 162 -3 165 -7 4 -4 8 -193 8 -421 0 -360 -2 -414 -15 -417 -8 -2
-83 -3 -167 -3 l-151 0 1 -107 0 -108 166 0 166 0 0 -303 c0 -361 6 -410 71
-543 56 -115 114 -169 398 -376 139 -102 285 -209 421 -309 61 -44 121 -88
134 -97 13 -9 47 -35 77 -57 29 -22 70 -51 89 -65 20 -14 42 -30 48 -35 47
-40 420 -306 454 -324 212 -107 451 -110 652 -7 53 27 331 224 601 426 42 31
403 294 440 320 19 14 37 27 40 30 3 3 46 35 95 70 50 35 95 69 101 75 6 5 37
28 69 50 209 146 294 253 344 433 19 68 20 104 21 649 0 318 5 580 9 583 5 3
77 5 160 4 83 0 152 2 152 5 1 3 3 52 3 109 l2 102 -163 0 -163 0 -1 488 c-1
268 -3 502 -5 520 -11 99 -88 259 -161 337 -121 128 -194 162 -578 269 -170
47 -326 90 -345 96 -44 13 -425 119 -465 130 -54 14 -189 51 -262 71 -96 26
-183 35 -273 28z"/>
</g>
</svg>
